<svg xmlns="http://www.w3.org/2000/svg" width="267" height="267" fill-rule="evenodd" stroke-linejoin="round" stroke-miterlimit="2" clip-rule="evenodd"><path d="M193.458 141.8c-1.189 5.292-2.011 9.596-3.165 12.868-.708 2.004-1.418 3.553-2.81 4.399-.882.536-1.997.746-3.403.78a4.169 4.169 0 0 0-4.064 4.267 4.169 4.169 0 0 0 4.267 4.064c6.646-.162 10.212-2.874 12.699-7.923 1.875-3.808 2.98-9.401 4.631-16.741.557-2.476.638-4.315.421-5.585-.323-1.89-1.212-3.134-2.375-3.973-1.087-.785-2.581-1.29-4.617-1.1-2.075.195-5.354 1.364-9.955 3.332a4.169 4.169 0 0 0-2.191 5.47 4.17 4.17 0 0 0 5.47 2.192c2-.856 3.689-1.557 5.092-2.05zm-132.625 0c1.403.493 3.092 1.194 5.092 2.05a4.168 4.168 0 0 0 5.469-2.192 4.169 4.169 0 0 0-2.191-5.47c-4.601-1.968-7.879-3.137-9.955-3.332-2.036-.19-3.529.315-4.617 1.1-1.163.839-2.051 2.083-2.374 3.973-.217 1.27-.137 3.109.42 5.585 1.651 7.34 2.756 12.933 4.631 16.741 2.487 5.049 6.053 7.761 12.699 7.923a4.169 4.169 0 0 0 4.267-4.064 4.169 4.169 0 0 0-4.064-4.267c-1.406-.034-2.521-.244-3.403-.78-1.391-.846-2.102-2.395-2.809-4.399-1.155-3.272-1.977-7.576-3.165-12.868z"/><path d="M182.518 122.325s-.478 16.929-3.112 34.047c-1.686 10.958-4.174 22.031-8.178 28.387-11.929 18.938-23.543 28.284-44.045 29.102-20.58-.807-31.972-10.324-44.148-29.144-4.102-6.342-6.627-16.969-8.314-27.396-2.636-16.293-3.048-32.2-3.048-32.2a4.169 4.169 0 0 0-4.273-4.058 4.168 4.168 0 0 0-4.057 4.273s.584 22.438 4.729 41.771c1.862 8.688 4.484 16.752 7.966 22.136 13.975 21.601 27.323 32.075 50.952 32.953.103.003.207.003.31 0 23.647-.879 37.257-11.211 50.979-32.995 3.385-5.375 5.961-13.692 7.801-22.739 4.092-20.124 4.768-43.901 4.768-43.901a4.169 4.169 0 0 0-4.047-4.283 4.169 4.169 0 0 0-4.283 4.047Z"/><path d="M96.632 49.932C59.768 61.097 53.64 92.562 55.95 115.591c.627 6.245 1.881 11.853 3.288 16.232a4.169 4.169 0 0 0 7.501.933c3.832-6.132 10.38-10.229 18.002-13.46 12.578-5.331 28.036-8.205 40.91-12.145 7.732-2.367 14.578-5.141 19.58-8.848 2.303-1.707 4.246-3.607 5.763-5.74.345.558.698 1.1 1.062 1.627a4.169 4.169 0 0 0 5.795 1.065 4.169 4.169 0 0 0 1.065-5.796c-1.785-2.588-3.267-5.646-4.324-9.404a4.166 4.166 0 0 0-8.174.965c-.181 4.574-2.538 7.911-6.149 10.588-4.345 3.22-10.341 5.518-17.057 7.574-13.134 4.02-28.891 7.002-41.723 12.442-6.257 2.652-11.834 5.897-16.242 10.014a76.488 76.488 0 0 1-1.005-6.879c-2.061-20.54 3.424-48.996 38.092-57.763 0 0 4.308-.977 2.99-5.163h.001c-1.26-4.495 1.16-8.074 4.844-10.658 4.55-3.192 10.994-4.967 16.976-5.04 5.982.073 12.426 1.848 16.976 5.04 3.684 2.584 1.937 6.163.678 10.658-.352 1.255 4.071 2.602 4.859 3.641a4.157 4.157 0 0 0 2.331 1.529l-.032-.007c5.294 1.339 9.921 3.123 13.948 5.271a4.169 4.169 0 0 0 5.638-1.715 4.169 4.169 0 0 0-1.716-5.637c-3.619-1.931-7.661-3.611-12.169-4.979.194-4.92-1.854-9.221-5.352-12.739-5.75-5.784-15.831-9.295-25.116-9.395a1.35 1.35 0 0 0-.09 0c-9.285.1-19.366 3.611-25.116 9.395-3.497 3.517-5.545 7.817-5.352 12.735zm-3.026 90.531c4.607-3.032 12.043-3.322 16.952-.023a4.168 4.168 0 0 0 5.782-1.133 4.17 4.17 0 0 0-1.133-5.783c-7.583-5.096-19.066-4.705-26.182-.022a4.168 4.168 0 0 0 4.581 6.961zm50.092 0c4.608-3.032 12.043-3.322 16.953-.023a4.168 4.168 0 0 0 5.782-1.133 4.169 4.169 0 0 0-1.134-5.783c-7.582-5.096-19.065-4.705-26.182-.022a4.169 4.169 0 0 0-1.19 5.771 4.169 4.169 0 0 0 5.771 1.19zm-31.245 55.816c10.194 4.817 20.539 4.718 29.552-.091a4.169 4.169 0 0 0 1.715-5.638 4.17 4.17 0 0 0-5.638-1.715c-6.731 3.592-14.456 3.506-22.068-.091a4.17 4.17 0 0 0-5.548 1.987 4.17 4.17 0 0 0 1.987 5.548z"/><path d="M182.116 126.867s11.483.362 22.681-14.139c8.579-11.109 9.735-26.738 9.735-51.308a4.168 4.168 0 0 0-3.909-4.159c-17.267-1.071-25.384-9.958-25.384-9.958a4.169 4.169 0 0 0-6.249 0s-8.115 8.887-25.381 9.958a4.168 4.168 0 0 0-3.909 4.159c0 24.569 1.155 40.199 9.735 51.308 11.198 14.501 22.68 14.139 22.68 14.139h.001Zm.043-8.333h-.049c-.017-.001-7.95-.372-16.08-10.9-7.255-9.393-7.937-22.506-7.992-42.423 12.183-1.546 20.081-6.39 24.078-9.544 3.995 3.154 11.894 7.998 24.078 9.544-.055 19.918-.738 33.03-7.993 42.423v.001c-7.78 10.075-15.381 10.847-16.039 10.896l-.003.003Z"/><path d="m167.445 89.297 8.445 8.918a4.165 4.165 0 0 0 6.022.03l14.746-15.264a4.169 4.169 0 0 0-.102-5.892 4.169 4.169 0 0 0-5.892.102l-11.719 12.131-5.449-5.755a4.17 4.17 0 0 0-5.891-.161 4.17 4.17 0 0 0-.16 5.891Z"/></svg>